<svg xmlns="http://www.w3.org/2000/svg" viewBox="0 0 512 512">
  <rect width="512" height="512" rx="110" fill="#1b528f"/>
  <path d="M256 100 C130 100 110 200 110 300 L110 390 C110 410 130 420 150 420 L240 420 L240 350 L160 350 L160 280 C160 200 200 160 256 160 C312 160 352 200 352 280 L352 420 L380 420 C400 420 412 400 412 380 L412 300 C412 200 382 100 256 100 Z" fill="#ffffff"/>
  <path d="M170 230 C200 200 312 200 342 230 L348 310 C300 330 212 330 164 310 Z" fill="#00E5FF"/>
  <rect x="236" y="120" width="40" height="15" rx="5" fill="#1b528f"/>
</svg>
